####
#
# OBJ File Generated by Meshlab
#
####
# Object sphereN2.obj
#
# Vertices: 160
# Faces: 288
#
####
mtllib ./sphereN2.obj.mtl

vn -0.000001 1.000000 0.000000
v -0.000001 1.000000 -0.000000
vn 0.000000 0.000000 0.000000
v -0.000001 1.000000 -0.000001
vn 0.000000 0.000000 0.000000
v -0.000000 1.000000 -0.000001
vn 0.000000 0.000000 0.000000
v 0.000001 1.000000 -0.000001
vn 0.000000 0.000000 0.000000
v 0.000001 1.000000 -0.000000
vn 0.000000 0.000000 0.000000
v 0.000001 1.000000 0.000001
vn 0.000000 0.000000 0.000000
v 0.000000 1.000000 0.000001
vn 0.000000 0.000000 0.000000
v -0.000001 1.000000 0.000001
vn -0.358824 0.933405 -0.000000
v -0.342021 0.939692 -0.000001
vn -0.337184 0.933405 -0.122726
v -0.321394 0.939692 -0.116979
vn -0.274875 0.933405 -0.230648
v -0.262003 0.939692 -0.219848
vn -0.179410 0.933406 -0.310751
v -0.171010 0.939692 -0.296199
vn -0.062309 0.933405 -0.353372
v -0.059391 0.939692 -0.336825
vn 0.062309 0.933406 -0.353372
v 0.059392 0.939692 -0.336825
vn 0.179412 0.933406 -0.310750
v 0.171011 0.939692 -0.296199
vn 0.274875 0.933405 -0.230647
v 0.262004 0.939692 -0.219847
vn 0.337184 0.933405 -0.122724
v 0.321395 0.939692 -0.116978
vn 0.358823 0.933406 0.000000
v 0.342021 0.939692 0.000000
vn 0.337185 0.933405 0.122724
v 0.321395 0.939692 0.116978
vn 0.274875 0.933405 0.230647
v 0.262004 0.939692 0.219847
vn 0.179411 0.933406 0.310750
v 0.171011 0.939692 0.296199
vn 0.062309 0.933406 0.353372
v 0.059392 0.939692 0.336825
vn -0.062309 0.933406 0.353372
v -0.059391 0.939692 0.336825
vn -0.179411 0.933405 0.310751
v -0.171010 0.939692 0.296199
vn -0.274875 0.933405 0.230649
v -0.262003 0.939692 0.219848
vn -0.337184 0.933405 0.122724
v -0.321394 0.939692 0.116979
vn -0.653814 0.756655 -0.000001
v -0.642788 0.766044 -0.000002
vn -0.614384 0.756655 -0.223619
v -0.604023 0.766044 -0.219848
vn -0.500850 0.756655 -0.420265
v -0.492403 0.766044 -0.413177
vn -0.326907 0.756655 -0.566220
v -0.321393 0.766044 -0.556672
vn -0.113533 0.756655 -0.643881
v -0.111618 0.766044 -0.633023
vn 0.113534 0.756655 -0.643881
v 0.111620 0.766044 -0.633023
vn 0.326908 0.756655 -0.566220
v 0.321395 0.766044 -0.556671
vn 0.500852 0.756655 -0.420263
v 0.492405 0.766044 -0.413176
vn 0.614385 0.756655 -0.223617
v 0.604023 0.766044 -0.219846
vn 0.653814 0.756655 0.000000
v 0.642788 0.766044 0.000000
vn 0.614385 0.756655 0.223617
v 0.604023 0.766044 0.219846
vn 0.500853 0.756654 0.420263
v 0.492405 0.766044 0.413176
vn 0.326908 0.756655 0.566220
v 0.321395 0.766044 0.556671
vn 0.113534 0.756655 0.643881
v 0.111620 0.766044 0.633023
vn -0.113533 0.756655 0.643882
v -0.111618 0.766044 0.633023
vn -0.326906 0.756655 0.566220
v -0.321393 0.766044 0.556672
vn -0.500850 0.756655 0.420264
v -0.492403 0.766044 0.413177
vn -0.614384 0.756655 0.223619
v -0.604023 0.766044 0.219848
vn -0.870678 0.491854 -0.000001
v -0.866026 0.500000 -0.000002
vn -0.818168 0.491854 -0.297792
v -0.813797 0.500000 -0.296200
vn -0.666976 0.491854 -0.559662
v -0.663413 0.500000 -0.556672
vn -0.435338 0.491854 -0.754030
v -0.433011 0.500000 -0.750001
vn -0.151191 0.491854 -0.857450
v -0.150383 0.500000 -0.852869
vn 0.151192 0.491854 -0.857450
v 0.150385 0.500000 -0.852869
vn 0.435340 0.491854 -0.754028
v 0.433013 0.500000 -0.750000
vn 0.666978 0.491854 -0.559661
v 0.663414 0.500000 -0.556670
vn 0.818169 0.491854 -0.297790
v 0.813798 0.500000 -0.296198
vn 0.870677 0.491855 -0.000000
v 0.866026 0.500000 0.000000
vn 0.818169 0.491855 0.297790
v 0.813798 0.500000 0.296198
vn 0.666978 0.491855 0.559660
v 0.663414 0.500000 0.556670
vn 0.435340 0.491854 0.754029
v 0.433013 0.500000 0.750000
vn 0.151193 0.491854 0.857450
v 0.150385 0.500000 0.852869
vn -0.151192 0.491854 0.857450
v -0.150383 0.500000 0.852869
vn -0.435337 0.491853 0.754030
v -0.433011 0.500000 0.750001
vn -0.666977 0.491854 0.559662
v -0.663413 0.500000 0.556672
vn -0.818169 0.491854 0.297791
v -0.813797 0.500000 0.296200
vn -0.985366 0.170452 -0.000001
v -0.984808 0.173648 -0.000002
vn -0.925940 0.170452 -0.337017
v -0.925416 0.173648 -0.336826
vn -0.754832 0.170452 -0.633383
v -0.754405 0.173648 -0.633024
vn -0.492682 0.170452 -0.853352
v -0.492402 0.173648 -0.852869
vn -0.171106 0.170452 -0.970396
v -0.171009 0.173648 -0.969847
vn 0.171108 0.170452 -0.970396
v 0.171011 0.173648 -0.969846
vn 0.492684 0.170452 -0.853352
v 0.492405 0.173648 -0.852868
vn 0.754834 0.170453 -0.633381
v 0.754407 0.173648 -0.633022
vn 0.925941 0.170453 -0.337015
v 0.925417 0.173648 -0.336824
vn 0.985366 0.170452 -0.000000
v 0.984808 0.173648 0.000000
vn 0.925941 0.170452 0.337015
v 0.925417 0.173648 0.336824
vn 0.754834 0.170453 0.633381
v 0.754407 0.173648 0.633022
vn 0.492684 0.170453 0.853352
v 0.492405 0.173648 0.852868
vn 0.171109 0.170452 0.970396
v 0.171011 0.173648 0.969846
vn -0.171107 0.170452 0.970396
v -0.171009 0.173648 0.969847
vn -0.492682 0.170452 0.853353
v -0.492402 0.173648 0.852869
vn -0.754832 0.170452 0.633383
v -0.754405 0.173648 0.633024
vn -0.925941 0.170452 0.337016
v -0.925416 0.173648 0.336826
vn -0.985366 -0.170452 -0.000001
v -0.984808 -0.173648 -0.000002
vn -0.925940 -0.170452 -0.337017
v -0.925416 -0.173648 -0.336826
vn -0.754832 -0.170452 -0.633383
v -0.754405 -0.173648 -0.633024
vn -0.492682 -0.170452 -0.853353
v -0.492402 -0.173648 -0.852869
vn -0.171107 -0.170452 -0.970396
v -0.171009 -0.173648 -0.969847
vn 0.171109 -0.170452 -0.970396
v 0.171011 -0.173648 -0.969846
vn 0.492684 -0.170453 -0.853352
v 0.492405 -0.173648 -0.852868
vn 0.754834 -0.170453 -0.633381
v 0.754407 -0.173648 -0.633022
vn 0.925941 -0.170453 -0.337015
v 0.925417 -0.173648 -0.336824
vn 0.985366 -0.170452 0.000000
v 0.984808 -0.173648 0.000000
vn 0.925941 -0.170453 0.337015
v 0.925417 -0.173648 0.336824
vn 0.754834 -0.170453 0.633381
v 0.754407 -0.173648 0.633022
vn 0.492684 -0.170452 0.853352
v 0.492405 -0.173648 0.852868
vn 0.171108 -0.170452 0.970396
v 0.171011 -0.173648 0.969846
vn -0.171106 -0.170452 0.970396
v -0.171009 -0.173648 0.969847
vn -0.492682 -0.170452 0.853352
v -0.492402 -0.173648 0.852869
vn -0.754832 -0.170452 0.633383
v -0.754405 -0.173648 0.633024
vn -0.925941 -0.170452 0.337016
v -0.925416 -0.173648 0.336826
vn -0.870678 -0.491854 -0.000001
v -0.866026 -0.500000 -0.000002
vn -0.818168 -0.491854 -0.297792
v -0.813797 -0.500000 -0.296200
vn -0.666977 -0.491854 -0.559662
v -0.663413 -0.500000 -0.556672
vn -0.435337 -0.491853 -0.754030
v -0.433011 -0.500000 -0.750001
vn -0.151192 -0.491854 -0.857450
v -0.150383 -0.500000 -0.852869
vn 0.151193 -0.491854 -0.857450
v 0.150385 -0.500000 -0.852869
vn 0.435340 -0.491854 -0.754029
v 0.433013 -0.500000 -0.750000
vn 0.666978 -0.491855 -0.559660
v 0.663414 -0.500000 -0.556670
vn 0.818169 -0.491855 -0.297790
v 0.813798 -0.500000 -0.296198
vn 0.870677 -0.491855 0.000000
v 0.866026 -0.500000 0.000000
vn 0.818169 -0.491854 0.297790
v 0.813798 -0.500000 0.296198
vn 0.666978 -0.491854 0.559661
v 0.663414 -0.500000 0.556670
vn 0.435340 -0.491854 0.754028
v 0.433013 -0.500000 0.750000
vn 0.151192 -0.491854 0.857450
v 0.150385 -0.500000 0.852869
vn -0.151191 -0.491854 0.857450
v -0.150383 -0.500000 0.852869
vn -0.435338 -0.491854 0.754030
v -0.433011 -0.500000 0.750001
vn -0.666976 -0.491854 0.559662
v -0.663413 -0.500000 0.556672
vn -0.818169 -0.491854 0.297791
v -0.813797 -0.500000 0.296200
vn -0.653814 -0.756655 -0.000001
v -0.642788 -0.766044 -0.000002
vn -0.614384 -0.756655 -0.223620
v -0.604023 -0.766044 -0.219848
vn -0.500850 -0.756655 -0.420264
v -0.492403 -0.766044 -0.413177
vn -0.326906 -0.756655 -0.566220
v -0.321393 -0.766044 -0.556672
vn -0.113533 -0.756655 -0.643882
v -0.111618 -0.766044 -0.633023
vn 0.113534 -0.756655 -0.643881
v 0.111620 -0.766044 -0.633023
vn 0.326908 -0.756655 -0.566220
v 0.321395 -0.766044 -0.556671
vn 0.500853 -0.756654 -0.420263
v 0.492405 -0.766044 -0.413176
vn 0.614385 -0.756655 -0.223617
v 0.604023 -0.766044 -0.219846
vn 0.653814 -0.756655 -0.000000
v 0.642788 -0.766044 0.000000
vn 0.614385 -0.756655 0.223616
v 0.604023 -0.766044 0.219846
vn 0.500852 -0.756655 0.420263
v 0.492405 -0.766044 0.413176
vn 0.326908 -0.756655 0.566220
v 0.321395 -0.766044 0.556671
vn 0.113534 -0.756655 0.643881
v 0.111620 -0.766044 0.633023
vn -0.113532 -0.756655 0.643881
v -0.111618 -0.766044 0.633023
vn -0.326907 -0.756655 0.566220
v -0.321393 -0.766044 0.556672
vn -0.500850 -0.756655 0.420265
v -0.492403 -0.766044 0.413177
vn -0.614384 -0.756655 0.223618
v -0.604023 -0.766044 0.219848
vn -0.358824 -0.933405 -0.000001
v -0.342021 -0.939692 -0.000001
vn -0.337184 -0.933406 -0.122725
v -0.321394 -0.939692 -0.116979
vn -0.274875 -0.933405 -0.230649
v -0.262003 -0.939692 -0.219848
vn -0.179411 -0.933405 -0.310751
v -0.171010 -0.939692 -0.296199
vn -0.062309 -0.933406 -0.353372
v -0.059391 -0.939692 -0.336825
vn 0.062309 -0.933406 -0.353372
v 0.059392 -0.939692 -0.336825
vn 0.179411 -0.933406 -0.310750
v 0.171011 -0.939692 -0.296199
vn 0.274875 -0.933405 -0.230647
v 0.262004 -0.939692 -0.219847
vn 0.337185 -0.933405 -0.122724
v 0.321395 -0.939692 -0.116978
vn 0.358823 -0.933405 -0.000000
v 0.342021 -0.939692 0.000000
vn 0.337184 -0.933405 0.122724
v 0.321395 -0.939692 0.116978
vn 0.274875 -0.933405 0.230647
v 0.262004 -0.939692 0.219847
vn 0.179412 -0.933406 0.310750
v 0.171011 -0.939692 0.296199
vn 0.062309 -0.933406 0.353372
v 0.059392 -0.939692 0.336825
vn -0.062309 -0.933405 0.353372
v -0.059391 -0.939692 0.336825
vn -0.179410 -0.933406 0.310751
v -0.171010 -0.939692 0.296199
vn -0.274875 -0.933405 0.230648
v -0.262003 -0.939692 0.219848
vn -0.337184 -0.933405 0.122725
v -0.321394 -0.939692 0.116979
vn -0.000001 -1.000000 -0.000000
v -0.000001 -1.000000 -0.000000
vn 0.000000 0.000000 0.000000
v -0.000001 -1.000000 -0.000001
vn 0.000000 0.000000 0.000000
v -0.000000 -1.000000 -0.000001
vn 0.000000 0.000000 0.000000
v 0.000001 -1.000000 -0.000001
vn 0.000000 0.000000 0.000000
v 0.000001 -1.000000 -0.000000
vn 0.000000 0.000000 0.000000
v 0.000001 -1.000000 0.000001
vn 0.000000 0.000000 0.000000
v 0.000000 -1.000000 0.000001
vn 0.000000 0.000000 0.000000
v -0.000001 -1.000000 0.000001
# 160 vertices, 0 vertices normals


usemtl material_0
f 1//1 10//10 9//9
f 1//1 11//11 10//10
f 1//1 12//12 11//11
f 1//1 13//13 12//12
f 1//1 14//14 13//13
f 1//1 15//15 14//14
f 1//1 16//16 15//15
f 1//1 17//17 16//16
f 1//1 18//18 17//17
f 1//1 19//19 18//18
f 1//1 20//20 19//19
f 1//1 21//21 20//20
f 1//1 22//22 21//21
f 1//1 23//23 22//22
f 1//1 24//24 23//23
f 1//1 25//25 24//24
f 1//1 26//26 25//25
f 1//1 9//9 26//26
f 9//9 10//10 28//28
f 9//9 28//28 27//27
f 10//10 11//11 29//29
f 10//10 29//29 28//28
f 11//11 12//12 30//30
f 11//11 30//30 29//29
f 12//12 13//13 31//31
f 12//12 31//31 30//30
f 13//13 14//14 32//32
f 13//13 32//32 31//31
f 14//14 15//15 33//33
f 14//14 33//33 32//32
f 15//15 16//16 34//34
f 15//15 34//34 33//33
f 16//16 17//17 35//35
f 16//16 35//35 34//34
f 17//17 18//18 36//36
f 17//17 36//36 35//35
f 18//18 19//19 37//37
f 18//18 37//37 36//36
f 19//19 20//20 38//38
f 19//19 38//38 37//37
f 20//20 21//21 39//39
f 20//20 39//39 38//38
f 21//21 22//22 40//40
f 21//21 40//40 39//39
f 22//22 23//23 41//41
f 22//22 41//41 40//40
f 23//23 24//24 42//42
f 23//23 42//42 41//41
f 24//24 25//25 43//43
f 24//24 43//43 42//42
f 25//25 26//26 44//44
f 25//25 44//44 43//43
f 26//26 9//9 27//27
f 26//26 27//27 44//44
f 27//27 28//28 46//46
f 27//27 46//46 45//45
f 28//28 29//29 47//47
f 28//28 47//47 46//46
f 29//29 30//30 48//48
f 29//29 48//48 47//47
f 30//30 31//31 49//49
f 30//30 49//49 48//48
f 31//31 32//32 50//50
f 31//31 50//50 49//49
f 32//32 33//33 51//51
f 32//32 51//51 50//50
f 33//33 34//34 52//52
f 33//33 52//52 51//51
f 34//34 35//35 53//53
f 34//34 53//53 52//52
f 35//35 36//36 54//54
f 35//35 54//54 53//53
f 36//36 37//37 55//55
f 36//36 55//55 54//54
f 37//37 38//38 56//56
f 37//37 56//56 55//55
f 38//38 39//39 57//57
f 38//38 57//57 56//56
f 39//39 40//40 58//58
f 39//39 58//58 57//57
f 40//40 41//41 59//59
f 40//40 59//59 58//58
f 41//41 42//42 60//60
f 41//41 60//60 59//59
f 42//42 43//43 61//61
f 42//42 61//61 60//60
f 43//43 44//44 62//62
f 43//43 62//62 61//61
f 44//44 27//27 45//45
f 44//44 45//45 62//62
f 45//45 46//46 64//64
f 45//45 64//64 63//63
f 46//46 47//47 65//65
f 46//46 65//65 64//64
f 47//47 48//48 66//66
f 47//47 66//66 65//65
f 48//48 49//49 67//67
f 48//48 67//67 66//66
f 49//49 50//50 68//68
f 49//49 68//68 67//67
f 50//50 51//51 69//69
f 50//50 69//69 68//68
f 51//51 52//52 70//70
f 51//51 70//70 69//69
f 52//52 53//53 71//71
f 52//52 71//71 70//70
f 53//53 54//54 72//72
f 53//53 72//72 71//71
f 54//54 55//55 73//73
f 54//54 73//73 72//72
f 55//55 56//56 74//74
f 55//55 74//74 73//73
f 56//56 57//57 75//75
f 56//56 75//75 74//74
f 57//57 58//58 76//76
f 57//57 76//76 75//75
f 58//58 59//59 77//77
f 58//58 77//77 76//76
f 59//59 60//60 78//78
f 59//59 78//78 77//77
f 60//60 61//61 79//79
f 60//60 79//79 78//78
f 61//61 62//62 80//80
f 61//61 80//80 79//79
f 62//62 45//45 63//63
f 62//62 63//63 80//80
f 63//63 64//64 82//82
f 63//63 82//82 81//81
f 64//64 65//65 83//83
f 64//64 83//83 82//82
f 65//65 66//66 84//84
f 65//65 84//84 83//83
f 66//66 67//67 85//85
f 66//66 85//85 84//84
f 67//67 68//68 86//86
f 67//67 86//86 85//85
f 68//68 69//69 87//87
f 68//68 87//87 86//86
f 69//69 70//70 88//88
f 69//69 88//88 87//87
f 70//70 71//71 89//89
f 70//70 89//89 88//88
f 71//71 72//72 90//90
f 71//71 90//90 89//89
f 72//72 73//73 91//91
f 72//72 91//91 90//90
f 73//73 74//74 92//92
f 73//73 92//92 91//91
f 74//74 75//75 93//93
f 74//74 93//93 92//92
f 75//75 76//76 94//94
f 75//75 94//94 93//93
f 76//76 77//77 95//95
f 76//76 95//95 94//94
f 77//77 78//78 96//96
f 77//77 96//96 95//95
f 78//78 79//79 97//97
f 78//78 97//97 96//96
f 79//79 80//80 98//98
f 79//79 98//98 97//97
f 80//80 63//63 81//81
f 80//80 81//81 98//98
f 81//81 82//82 100//100
f 81//81 100//100 99//99
f 82//82 83//83 101//101
f 82//82 101//101 100//100
f 83//83 84//84 102//102
f 83//83 102//102 101//101
f 84//84 85//85 103//103
f 84//84 103//103 102//102
f 85//85 86//86 104//104
f 85//85 104//104 103//103
f 86//86 87//87 105//105
f 86//86 105//105 104//104
f 87//87 88//88 106//106
f 87//87 106//106 105//105
f 88//88 89//89 107//107
f 88//88 107//107 106//106
f 89//89 90//90 108//108
f 89//89 108//108 107//107
f 90//90 91//91 109//109
f 90//90 109//109 108//108
f 91//91 92//92 110//110
f 91//91 110//110 109//109
f 92//92 93//93 111//111
f 92//92 111//111 110//110
f 93//93 94//94 112//112
f 93//93 112//112 111//111
f 94//94 95//95 113//113
f 94//94 113//113 112//112
f 95//95 96//96 114//114
f 95//95 114//114 113//113
f 96//96 97//97 115//115
f 96//96 115//115 114//114
f 97//97 98//98 116//116
f 97//97 116//116 115//115
f 98//98 81//81 99//99
f 98//98 99//99 116//116
f 99//99 100//100 118//118
f 99//99 118//118 117//117
f 100//100 101//101 119//119
f 100//100 119//119 118//118
f 101//101 102//102 120//120
f 101//101 120//120 119//119
f 102//102 103//103 121//121
f 102//102 121//121 120//120
f 103//103 104//104 122//122
f 103//103 122//122 121//121
f 104//104 105//105 123//123
f 104//104 123//123 122//122
f 105//105 106//106 124//124
f 105//105 124//124 123//123
f 106//106 107//107 125//125
f 106//106 125//125 124//124
f 107//107 108//108 126//126
f 107//107 126//126 125//125
f 108//108 109//109 127//127
f 108//108 127//127 126//126
f 109//109 110//110 128//128
f 109//109 128//128 127//127
f 110//110 111//111 129//129
f 110//110 129//129 128//128
f 111//111 112//112 130//130
f 111//111 130//130 129//129
f 112//112 113//113 131//131
f 112//112 131//131 130//130
f 113//113 114//114 132//132
f 113//113 132//132 131//131
f 114//114 115//115 133//133
f 114//114 133//133 132//132
f 115//115 116//116 134//134
f 115//115 134//134 133//133
f 116//116 99//99 117//117
f 116//116 117//117 134//134
f 117//117 118//118 136//136
f 117//117 136//136 135//135
f 118//118 119//119 137//137
f 118//118 137//137 136//136
f 119//119 120//120 138//138
f 119//119 138//138 137//137
f 120//120 121//121 139//139
f 120//120 139//139 138//138
f 121//121 122//122 140//140
f 121//121 140//140 139//139
f 122//122 123//123 141//141
f 122//122 141//141 140//140
f 123//123 124//124 142//142
f 123//123 142//142 141//141
f 124//124 125//125 143//143
f 124//124 143//143 142//142
f 125//125 126//126 144//144
f 125//125 144//144 143//143
f 126//126 127//127 145//145
f 126//126 145//145 144//144
f 127//127 128//128 146//146
f 127//127 146//146 145//145
f 128//128 129//129 147//147
f 128//128 147//147 146//146
f 129//129 130//130 148//148
f 129//129 148//148 147//147
f 130//130 131//131 149//149
f 130//130 149//149 148//148
f 131//131 132//132 150//150
f 131//131 150//150 149//149
f 132//132 133//133 151//151
f 132//132 151//151 150//150
f 133//133 134//134 152//152
f 133//133 152//152 151//151
f 134//134 117//117 135//135
f 134//134 135//135 152//152
f 135//135 136//136 153//153
f 136//136 137//137 153//153
f 137//137 138//138 153//153
f 138//138 139//139 153//153
f 139//139 140//140 153//153
f 140//140 141//141 153//153
f 141//141 142//142 153//153
f 142//142 143//143 153//153
f 143//143 144//144 153//153
f 144//144 145//145 153//153
f 145//145 146//146 153//153
f 146//146 147//147 153//153
f 147//147 148//148 153//153
f 148//148 149//149 153//153
f 149//149 150//150 153//153
f 150//150 151//151 153//153
f 151//151 152//152 153//153
f 152//152 135//135 153//153
# 288 faces, 0 coords texture

# End of File
